<?xml version="1.0" standalone="no"?>
<!DOCTYPE svg PUBLIC "-//W3C//DTD SVG 1.1//EN" "http://www.w3.org/Graphics/SVG/1.1/DTD/svg11.dtd" >
<svg xmlns="http://www.w3.org/2000/svg">
<metadata>
<json>
<![CDATA[
{
	"fontFamily": "SF-Icons",
	"majorVersion": 1,
	"minorVersion": 0,
	"version": "Version 1.0",
	"fontId": "SF-Icons",
	"psName": "SF-Icons",
	"subFamily": "Regular",
	"fullName": "SF-Icons",
	"description": "Font generated by IcoMoon."
}
]]>
</json>
</metadata>
<defs>
<font id="SF-Icons" horiz-adv-x="1024">
<font-face units-per-em="1024" ascent="960" descent="-64" />
<missing-glyph horiz-adv-x="1024" />
<glyph unicode="&#x20;" horiz-adv-x="512" d="" />
<glyph unicode="&#xe900;" glyph-name="chat" data-tags="chat" d="M853.333 874.667h-682.667c-46.933 0-84.907-38.4-84.907-85.333l-0.427-768 170.667 170.667h597.333c46.933 0 85.333 38.4 85.333 85.333v512c0 46.933-38.4 85.333-85.333 85.333v0zM256 576h512v-85.333h-512v85.333zM597.333 362.667h-341.333v85.333h341.333v-85.333zM768 618.667h-512v85.333h512v-85.333z" />
<glyph unicode="&#xe901;" glyph-name="bell" data-tags="bell" d="M427.093 63.573c0-46.933 37.973-84.907 84.907-84.907s84.907 37.973 84.907 84.907h-169.813zM805.547 242.347v248.32c0 138.667-96 254.72-225.707 285.44v30.72c0 37.547-30.293 67.84-67.84 67.84s-67.84-30.293-67.84-67.84v-30.72c-129.707-30.72-225.707-146.773-225.707-285.44v-248.32l-90.453-90.453v-45.227h768v45.227l-90.453 90.453z" />
<glyph unicode="&#xe902;" glyph-name="check" data-tags="check" d="M384 270.080l-177.92 177.92-60.587-60.16 238.507-238.507 512 512-60.16 60.16z" />
<glyph unicode="&#xe903;" glyph-name="chevron_right" data-tags="chevron_right" d="M426.656 704l-60.16-60.16 195.424-195.84-195.424-195.84 60.16-60.16 256 256z" />
<glyph unicode="&#xe904;" glyph-name="facebook" data-tags="facebook" d="M512-64v0 0c-282.77 0-512 229.23-512 512s229.23 512 512 512c282.77 0 512-229.23 512-512s-229.23-512-512-512zM440.304 198.785h92.974v256.139h69.748l13.794 80.034h-83.542v57.996c0 18.696 12.053 38.326 29.279 38.326h47.48v80.034h-58.188v-0.359c-91.046-3.314-109.752-56.202-111.374-111.754h-0.17v-64.243h-46.51v-80.034h46.51v-256.139z" />
<glyph unicode="&#xe905;" glyph-name="googleplus" data-tags="googleplus" d="M512-64c282.77 0 512 229.23 512 512s-229.23 512-512 512c-282.77 0-512-229.23-512-512s229.23-512 512-512v0zM248.387 449.953c1.435 86.202 80.366 161.697 166.222 158.821 41.133 1.913 79.804-16.059 111.312-41.304-13.442-15.336-27.367-30.12-42.25-43.941-37.871 26.287-91.743 33.793-129.615 3.434-54.19-37.625-56.651-126.464-4.538-166.965 50.684-46.179 146.489-23.246 160.493 47.455-31.751 0.478-63.577 0-95.322 1.036-0.079 19.015-0.159 38.030-0.079 57.045 53.072 0.159 106.145 0.239 159.296-0.159 3.182-44.738-2.706-92.352-30.078-129.345-41.456-58.559-124.686-75.655-189.613-50.57-65.165 24.926-111.317 94.032-105.827 164.493v0zM689.717 506.514h47.344c0.079-15.9 0.159-31.874 0.318-47.773 15.836-0.159 31.746-0.159 47.582-0.319v-47.534c-15.836-0.159-31.666-0.239-47.582-0.399-0.159-15.98-0.238-31.879-0.318-47.773h-47.423c-0.159 15.894-0.159 31.794-0.318 47.694-15.836 0.159-31.751 0.319-47.582 0.478v47.534c15.83 0.159 31.666 0.239 47.582 0.319 0.079 15.98 0.238 31.874 0.397 47.773v0z" />
<glyph unicode="&#xe906;" glyph-name="instagram" data-tags="instagram" d="M512-64v0c-282.77 0-512 229.23-512 512s229.23 512 512 512c282.77 0 512-229.23 512-512s-229.23-512-512-512zM725.144 615.215c0-17.694-14.282-32.033-31.905-32.033h-31.905c-17.617 0-31.905 14.339-31.905 32.033v16.019c0 17.688 14.288 32.027 31.905 32.027h31.905c17.623 0 31.905-14.339 31.905-32.027v-16.019zM677.284 711.314h-287.142v-160.165h39.573c23.187 21.429 54.048 34.624 88.045 34.624 34.003 0 64.864-13.195 88.057-34.624h135.281v-256.265c0-35.387-28.57-64.066-63.815-64.066h-319.046c-35.24 0-63.804 28.679-63.804 64.066v391.817c-19.54-17.597-31.905-43.058-31.905-71.486v-320.331c0-53.075 42.851-96.099 95.708-96.099h319.046c52.862 0 95.72 43.024 95.72 96.099v320.331c0 53.075-42.857 96.099-95.72 96.099v0zM352.774 551.149v160.165c-11.202 0-21.911-2.033-31.905-5.581v-154.585h31.905zM455.328 438.214c0 35.928 29.012 65.057 64.796 65.057s64.796-29.129 64.796-65.057c0-35.928-29.012-65.057-64.796-65.057s-64.796 29.129-64.796 65.057v0zM617.284 438.214c0 53.878-43.498 97.557-97.16 97.557s-97.16-43.679-97.16-97.557c0-53.878 43.498-97.551 97.16-97.551s97.16 43.673 97.16 97.551v0z" />
<glyph unicode="&#xe907;" glyph-name="twitter" data-tags="twitter" d="M512-64v0c-282.77 0-512 229.23-512 512s229.23 512 512 512c282.77 0 512-229.23 512-512s-229.23-512-512-512zM744.302 643.831c-14.408-9.257-47.49-22.708-63.804-22.708v-0.028c-18.629 19.519-44.856 31.705-73.943 31.705-56.493 0-102.302-45.946-102.302-102.586 0-7.87 0.909-15.546 2.59-22.907h-0.017c-76.631 2.017-160.442 40.541-210.896 106.476-31.021-53.854-4.176-113.749 31.026-135.572-12.050-0.912-34.233 1.393-44.674 11.611-0.7-35.744 16.436-83.105 78.918-100.287-12.034-6.493-33.335-4.631-42.597-3.249 3.251-30.174 45.379-69.621 91.447-69.621-16.419-19.049-78.196-53.6-147.521-42.608 47.082-28.731 101.955-45.371 160.034-45.371 165.048 0 293.225 134.163 286.326 299.672-0.028 0.182-0.028 0.365-0.044 0.564 0.017 0.426 0.044 0.851 0.044 1.293 0 0.514-0.044 1-0.061 1.498 15.025 10.307 35.186 28.538 49.589 52.533-8.353-4.615-33.412-13.855-56.73-16.148 14.965 8.102 37.137 34.634 42.613 55.733v0z" />
<glyph unicode="&#xe908;" glyph-name="youtube" data-tags="youtube" d="M512-64v0c-282.77 0-512 229.23-512 512s229.23 512 512 512c282.77 0 512-229.23 512-512s-229.23-512-512-512zM364.624 682.057v-482.743l396.815 241.371-396.815 241.371z" />
<glyph unicode="&#xe909;" glyph-name="car" data-tags="ic_directions_car_black_24px" d="M807.253 703.573c-8.533 25.173-32.427 43.093-60.587 43.093h-469.333c-28.16 0-51.627-17.92-60.587-43.093l-88.747-255.573v-341.333c0-23.467 19.2-42.667 42.667-42.667h42.667c23.467 0 42.667 19.2 42.667 42.667v42.667h512v-42.667c0-23.467 19.2-42.667 42.667-42.667h42.667c23.467 0 42.667 19.2 42.667 42.667v341.333l-88.747 255.573zM277.333 277.333c-35.413 0-64 28.587-64 64s28.587 64 64 64 64-28.587 64-64-28.587-64-64-64zM746.667 277.333c-35.413 0-64 28.587-64 64s28.587 64 64 64 64-28.587 64-64-28.587-64-64-64zM213.333 490.667l64 192h469.333l64-192h-597.333z" />
<glyph unicode="&#xe90a;" glyph-name="grampy" data-tags="Grampy Logo" d="M753.912 800.432c0-27.147-21.982-49.156-49.103-49.156s-49.103 22.008-49.103 49.156c0 27.147 21.982 49.156 49.103 49.156s49.103-22.008 49.103-49.156zM370.535 590.861c0 64.271 52.194 116.371 116.582 116.371 64.384 0 116.578-52.1 116.578-116.371s-52.194-116.371-116.578-116.371c-64.388 0-116.582 52.1-116.582 116.371zM620.112 422.608c50.913 41.14 82.485 105.195 78.86 176.473-5.518 108.561-93.974 196.41-202.756 201.399-122.261 5.614-223.149-91.673-223.149-212.482 0-117.477 85.047-195.27 213.094-213.484 74.839-10.644 118.254-55.246 118.254-114.852 0-66.27-55.371-119.603-122.514-116.219-57.682 2.911-105.242 48.91-110.055 106.368-1.766 21.069 2.203 41.058 10.38 58.683l-85.976 42.923c-15.611-31.311-23.758-66.974-21.999-104.715 5.085-109.268 94.164-197.817 203.652-202.419 121.906-5.127 221.831 91.989 221.831 212.519 0 67.048-31.005 126.815-79.621 165.806z" />
<glyph unicode="&#xe90b;" glyph-name="arrow_down" data-tags="arrow_down" d="M316.16 625.504l195.84-195.424 195.84 195.424 60.16-60.16-256-256-256 256z" />
<glyph unicode="&#xe90c;" glyph-name="arrow_up" data-tags="arrow_up" d="M316.16 302.496l195.84 195.424 195.84-195.424 60.16 60.16-256 256-256-256z" />
<glyph unicode="&#xe90d;" glyph-name="home" data-tags="ic_home_64x64-1" horiz-adv-x="1560" d="M684-64h-444v520h-240l780 504 780-508h-240v-516h-448v356h-188v-356zM312 8h304v356h332v-356h300v520h68l-536 348-536-348h68c0 0 0-520 0-520z" />
<glyph unicode="&#xe90e;" glyph-name="life" data-tags="ic_life_64x64" horiz-adv-x="1273" d="M999.092 937.859h-2.768c-213.103 0-315.503-77.492-359.784-135.611-44.281 58.119-143.914 135.611-357.016 135.611h-2.768c-2.768 0-254.616-30.443-254.616-332.108 0-293.362 575.654-636.541 600.562-650.378l16.605-11.070 16.605 11.070c24.908 13.838 597.795 357.016 597.795 650.378-2.768 304.432-251.849 332.108-254.616 332.108zM600.562 724.757l30.443-116.238 35.978 113.47c2.768 5.535 47.049 143.914 323.805 143.914 19.373-2.768 190.962-30.443 190.962-262.919 0-202.032-379.157-476.022-545.211-581.189-166.054 107.935-547.978 381.924-547.978 586.724 0 229.708 171.589 260.151 190.962 262.919 276.757-2.768 321.038-141.146 321.038-146.681z" />
<glyph unicode="&#xe90f;" glyph-name="phone" data-tags="phone, contact" d="M68.032 921.984c40.896 40.992 164.512 47.84 165.44 26.144 0.928-21.664 111.328-262.112 112.288-283.808 0.96-21.664-72.768-95.584-94.336-117.216-21.376-21.408 144.256-209.056 147.392-212.608 3.52-3.168 190.72-169.184 212.096-147.744 21.568 21.632 95.328 95.52 116.896 94.56 21.632-0.928 261.536-111.584 283.168-112.576 21.632-0.928 14.816-124.8-26.080-165.824-34.976-35.040-216.064-162.272-530.944 64.928-34.528 19.904-89.216 65.568-172.16 148.672-0.032 0.032-0.096 0.096-0.16 0.128-0.064 0.096-0.128 0.128-0.192 0.192s-0.128 0.128-0.192 0.192c-0.032 0.064-0.096 0.128-0.128 0.16-82.88 83.136-128.448 137.984-148.32 172.576-226.656 315.648-99.712 497.184-64.768 532.224z" />
<glyph unicode="&#xe910;" glyph-name="close" data-tags="ic_close_black_24px" d="M810.667 686.507l-60.16 60.16-238.507-238.507-238.507 238.507-60.16-60.16 238.507-238.507-238.507-238.507 60.16-60.16 238.507 238.507 238.507-238.507 60.16 60.16-238.507 238.507z" />
<glyph unicode="&#xe911;" glyph-name="travel" data-tags="ic_travel_64x64" horiz-adv-x="1164" d="M1128.727-50.036h-1070.545v165.236h1070.545v-165.236zM116.364 8.145h954.182v48.873h-954.182v-48.873zM176.873 217.6l-169.891 290.909 128 34.909 104.727-81.455 214.109 58.182-218.764 379.345 155.927 41.891 367.709-342.109 265.309 69.818c27.927 6.982 58.182 4.655 83.782-11.636 25.6-13.964 44.218-37.236 51.2-67.491 16.291-58.182-18.618-116.364-76.8-134.982l-905.309-237.382zM95.418 471.273l107.055-186.182 861.091 230.4c27.927 6.982 44.218 34.909 37.236 62.836-2.327 13.964-11.636 23.273-23.273 30.255s-25.6 9.309-39.564 4.655l-297.891-79.127-367.709 342.109-51.2-13.964 221.091-381.673-316.509-83.782-104.727 81.455-25.6-6.982z" />
<glyph unicode="&#xe912;" glyph-name="vehiculo" data-tags="vehiculo" horiz-adv-x="1971" d="M21.070 245.728h185.416v-42.441h-185.416v42.441zM1675.965 245.728h273.608v-42.441h-273.608v42.441zM572.802 245.728h746.178v-42.441h-746.178v42.441zM118.594 373.051h-97.524c-11.637 0-21.070 9.433-21.070 21.070v109.865c0 11.637 9.433 21.070 21.070 21.070h97.524c11.637 0 21.070-9.433 21.070-21.070v-109.564c0.001-0.090 0.002-0.195 0.002-0.301 0-11.637-9.433-21.070-21.070-21.070-0.001 0-0.002 0-0.002 0zM42.441 415.492h55.083v67.424h-55.083v-67.424zM1900.811 367.934c-74.973 0-135.751 60.778-135.751 135.751 0.353 31.754 11.651 60.802 30.291 83.618 3.701 4.713 9.692 7.866 16.419 7.866 2.798 0 5.469-0.545 7.912-1.536 80.753-31.962 139.482-104.008 152.011-190.988 0.184-1.721 0.201-2.213 0.201-2.709 0-8.374-4.885-15.607-11.961-19.004-17.007-8.228-36.839-13.004-57.787-13.004-0.47 0-0.938 0.002-1.407 0.007zM1818.337 548.534c-7.561-12.869-12.115-28.304-12.34-44.784-0.001-51.599 41.776-93.375 93.309-93.375 0.52-0.011 1.133-0.017 1.748-0.017 9.031 0 17.753 1.326 25.981 3.794-16.105 58.758-55.486 106.411-107.517 132.638zM385.58 44.36c-58.516 0-105.952 47.436-105.952 105.952s47.436 105.952 105.952 105.952c58.516 0 105.952-47.436 105.952-105.952s-47.436-105.952-105.952-105.952zM385.58 213.822c-35.076 0-63.511-28.435-63.511-63.511s28.435-63.511 63.511-63.511c35.076 0 63.511 28.435 63.511 63.511s-28.435 63.511-63.511 63.511zM1497.472 44.36c-58.516 0-105.952 47.436-105.952 105.952s47.436 105.952 105.952 105.952c58.516 0 105.952-47.436 105.952-105.952s-47.436-105.952-105.952-105.952zM1497.472 213.822c-35.076 0-63.511-28.435-63.511-63.511s28.435-63.511 63.511-63.511c35.076 0 63.511 28.435 63.511 63.511s-28.435 63.511-63.511 63.511zM1278.044 551.845h-846.711c-39.13 0-63.812 11.438-73.143 34.314-1.517 5.826-2.387 12.514-2.387 19.405 0 24.692 11.177 46.773 28.749 61.46 64.841 66.624 127.148 137.359 142.499 157.225 13.679 16.403 34.122 26.765 56.985 26.765 3.255 0 6.462-0.21 9.606-0.617l467.984 0.039c71.036-12.943 155.918-90.3 245.917-171.57l5.418-5.117c34.615-30.1 47.257-60.2 37.625-84.882-12.512-22.575-36.199-37.604-63.395-37.604-3.224 0-6.399 0.211-9.511 0.621zM593.27 807.995c-2.33 0.569-5.004 0.896-7.755 0.896-10.382 0-19.678-4.652-25.917-11.985-24.722-30.148-85.825-99.077-144.821-159.578-10.371-8.316-17.129-20.768-17.755-34.815 7.259-5.788 16.526-9.221 26.594-9.221 2.728 0 5.396 0.252 7.984 0.734l846.443-0.041c1.88-0.301 4.048-0.474 6.256-0.474 10.406 0 19.919 3.827 27.207 10.149-3.178 16.263-12.908 29.842-26.291 38.042l-5.967 5.259c-80.969 72.24-165.55 148.995-223.342 161.035h-462.636zM816.611 829.065h42.441v-604.708h-42.441v604.708zM935.205 483.518h97.524v-42.441h-97.524v42.441zM385.58-63.398c-118.361 0-214.312 95.951-214.312 214.312s95.951 214.312 214.312 214.312c118.361 0 214.312-95.951 214.312-214.312-0.171-118.292-96.019-214.14-214.295-214.312zM385.58 322.784c-94.922 0-171.871-76.949-171.871-171.871s76.949-171.871 171.871-171.871c94.922 0 171.871 76.949 171.871 171.871-0.512 94.594-77.229 171.099-171.854 171.269zM1497.472-63.398c-118.361 0-214.312 95.951-214.312 214.312s95.951 214.312 214.312 214.312c118.361 0 214.312-95.951 214.312-214.312-0.171-118.292-96.019-214.14-214.295-214.312zM1497.472 322.784c-94.922 0-171.871-76.949-171.871-171.871s76.949-171.871 171.871-171.871c94.922 0 171.871 76.949 171.871 171.871-0.512 94.594-77.229 171.099-171.854 171.269zM1913.152 113.289h-223.342c-0.023 0-0.050 0-0.078 0-11.637 0-21.070 9.433-21.070 21.070 0 0.636 0.028 1.265 0.083 1.887-0.006 4.736-0.006 9.251-0.006 14.067 0 95.088-77.084 172.172-172.172 172.172s-172.172-77.084-172.172-172.172c0-4.816 0-9.632 0-14.147 0.049-0.541 0.078-1.17 0.078-1.806 0-11.637-9.433-21.070-21.070-21.070-0.027 0-0.055 0-0.082 0h-725.404c-0.023 0-0.050 0-0.078 0-11.637 0-21.070 9.433-21.070 21.070 0 0.636 0.028 1.265 0.083 1.887-0.006 4.736-0.006 9.251-0.006 14.067 0 94.922-76.949 171.871-171.871 171.871s-171.871-76.949-171.871-171.871c0-4.816 0-9.632 0-14.147 0.049-0.541 0.078-1.17 0.078-1.806 0-11.637-9.433-21.070-21.070-21.070-0.027 0-0.055 0-0.082 0h-134.242c-31.918 0-57.792 25.874-57.792 57.792v386.182c0 0.002 0 0.005 0 0.007 0 31.6 25.362 57.277 56.841 57.784 31.954 2.71 120.447 14.75 152.955 39.131 84.352 74.31 160.677 153.021 230.481 237.327 36.759 43.852 87.312 69.335 143.817 69.335 3.333 0 6.646-0.089 9.935-0.264l474.819 0.020c186.62-24.983 406.048-301.601 446.683-353.975h257.956c16.891-2.951 31.852-7.234 46.118-12.89 6.449-2.552 12.033-10.201 12.033-19.153 0-4.974-1.723-9.545-4.605-13.149-12.339-15.525-19.82-35.461-19.833-57.145 0-51.537 41.776-93.313 93.31-93.313 14.346 0.066 27.899 3.391 39.979 9.271 2.105 1.053 5.224 1.81 8.52 1.81 11.193 0 20.348-8.728 21.029-19.75l0.003-1.866c0-2.408 0-4.816 0-7.224v-221.536c0.002-0.181 0.003-0.395 0.003-0.609 0-31.601-25.364-57.278-56.845-57.784zM1711.483 155.73h201.67c8.478 0 15.351 6.873 15.351 15.351v199.864c-8.306-1.872-17.859-2.966-27.66-3.010-75.005 0-135.782 60.778-135.782 135.751 0 0.075 0 0.163 0 0.251 0 21.143 4.888 41.144 13.594 58.935l-10.584 1.314h-263.073c-0.089-0.001-0.194-0.002-0.299-0.002-6.87 0-12.973 3.288-16.819 8.377-2.446 3.364-238.731 319.714-422.943 344.998h-471.666c-3.138 0.253-6.794 0.397-10.483 0.397-43.076 0-81.568-19.628-107.019-50.429-47.746-58.026-174.768-197.991-240.987-247.355-49.063-36.421-162.54-46.655-174.58-47.558h-2.408c-8.478 0-15.351-6.873-15.351-15.351v-386.182c0-8.478 6.873-15.351 15.351-15.351h113.477c4.441 114.855 98.624 206.281 214.161 206.281s209.72-91.426 214.149-205.879l683.582-0.403c0 118.361 95.951 214.312 214.312 214.312s214.312-95.951 214.312-214.312z" />
<glyph unicode="&#xe913;" glyph-name="other" data-tags="ic_other_64x64" d="M501.961 960c-277.333 0-501.961-224.627-501.961-501.961s224.627-501.961 501.961-501.961c277.333 0 501.961 224.627 501.961 501.961s-224.627 501.961-501.961 501.961v0zM501.961 81.569c-207.686 0-376.471 168.784-376.471 376.471s168.784 376.471 376.471 376.471c207.686 0 376.471-168.784 376.471-376.471s-168.784-376.471-376.471-376.471v0z" />
<glyph unicode="&#xe914;" glyph-name="soap" data-tags="ic_SOAP_64x64" horiz-adv-x="1265" d="M1016.471 451.765h-112.941v-169.412h-169.412v-112.941h282.353v282.353zM338.824 621.176h169.412v112.941h-282.353v-282.353h112.941v169.412zM1129.412 960h-1016.471c-62.118 0-112.941-50.824-112.941-112.941v-790.588c0-62.118 50.824-112.941 112.941-112.941h1016.471c62.118 0 112.941 50.824 112.941 112.941v790.588c0 62.118-50.824 112.941-112.941 112.941v0zM1129.412 55.906h-1016.471v791.718h1016.471v-791.718z" />
<glyph unicode="&#xe915;" glyph-name="slider_arrow_right" data-tags="ic_arrow_right" horiz-adv-x="576" d="M20.114 408.523l434.871-434.871c26.149-26.149 68.657-26.149 94.805 0s26.149 68.657 0 94.805l-387.669 387.669 387.669 387.669c26.149 26.149 26.149 68.657 0 94.805s-68.657 26.149-94.805 0l-434.871-434.871c-13.141-13.141-19.578-30.306-19.578-47.604s6.437-34.462 19.578-47.604v0z" />
<glyph unicode="&#xe916;" glyph-name="slider_arrow_left" data-tags="ic_arrow_left" horiz-adv-x="608" d="M565.029 408.523l-434.871-434.871c-26.149-26.149-68.657-26.149-94.805 0s-26.149 68.657 0 94.805l387.669 387.669-387.669 387.669c-26.149 26.149-26.149 68.657 0 94.805s68.657 26.149 94.805 0l434.871-434.871c13.141-13.141 19.578-30.306 19.578-47.604s-6.437-34.462-19.578-47.604v0z" />
<glyph unicode="&#xe917;" glyph-name="star" data-tags="star" d="M512 187.733l316.587-230.4-121.173 372.053 316.587 225.28h-388.267l-123.733 384-123.733-384h-388.267l316.587-225.28-121.173-372.053z" />
<glyph unicode="&#xe918;" glyph-name="back_arrow" data-tags="ic_arrow_back_black_24px-2" d="M1024 512h-778.88l357.76 357.76-90.88 90.24-512-512 512-512 90.24 90.24-357.12 357.76h778.88z" />
<glyph unicode="&#xe919;" glyph-name="download" data-tags="ic_file_download_black_24px-2" horiz-adv-x="843" d="M843.294 598.588h-240.941v361.412h-361.412v-361.412h-240.941l421.647-421.647 421.647 421.647zM0 56.471v-120.471h843.294v120.471h-843.294z" />
<glyph unicode="&#xe91a;" glyph-name="settings" data-tags="ic_settings_black_48px" d="M892.416 397.824c2.048 16.384 3.584 32.768 3.584 50.176s-1.536 33.792-3.584 50.176l108.032 84.48c9.728 7.68 12.288 21.504 6.144 32.768l-102.4 177.152c-6.144 11.264-19.968 15.36-31.232 11.264l-127.488-51.2c-26.624 20.48-55.296 37.376-86.528 50.176l-19.456 135.68c-1.536 12.288-12.288 21.504-25.088 21.504h-204.8c-12.8 0-23.552-9.216-25.088-21.504l-19.456-135.68c-31.232-12.8-59.904-30.208-86.528-50.176l-127.488 51.2c-11.776 4.608-25.088 0-31.232-11.264l-102.4-177.152c-6.656-11.264-3.584-25.088 6.144-32.768l108.032-84.48c-2.048-16.384-3.584-33.28-3.584-50.176s1.536-33.792 3.584-50.176l-108.032-84.48c-9.728-7.68-12.288-21.504-6.144-32.768l102.4-177.152c6.144-11.264 19.968-15.36 31.232-11.264l127.488 51.2c26.624-20.48 55.296-37.376 86.528-50.176l19.456-135.68c1.536-12.288 12.288-21.504 25.088-21.504h204.8c12.8 0 23.552 9.216 25.088 21.504l19.456 135.68c31.232 12.8 59.904 30.208 86.528 50.176l127.488-51.2c11.776-4.608 25.088 0 31.232 11.264l102.4 177.152c6.144 11.264 3.584 25.088-6.144 32.768l-108.032 84.48zM512 268.8c-98.816 0-179.2 80.384-179.2 179.2s80.384 179.2 179.2 179.2c98.816 0 179.2-80.384 179.2-179.2s-80.384-179.2-179.2-179.2v0z" />
<glyph unicode="&#xe91b;" glyph-name="message" data-tags="ic_forum_black_48px" d="M972.8 755.2h-102.4v-460.8h-665.6v-102.4c0-28.16 23.040-51.2 51.2-51.2h563.2l204.8-204.8v768c0 28.16-23.040 51.2-51.2 51.2v0zM768 448v460.8c0 28.16-23.040 51.2-51.2 51.2h-665.6c-28.16 0-51.2-23.040-51.2-51.2v-716.8l204.8 204.8h512c28.16 0 51.2 23.040 51.2 51.2v0z" />
<glyph unicode="&#xe91c;" glyph-name="playlist" data-tags="ic_playlist_add_check_black_48px" horiz-adv-x="1536" d="M877.714 667.429h-877.714v-146.286h877.714v146.286zM877.714 960h-877.714v-146.286h877.714v146.286zM0 228.571h585.143v146.286h-585.143v-146.286zM1426.286 557.714l109.714-109.714-511.269-512-329.874 329.143 109.714 109.714 220.16-219.429 401.554 402.286z" />
<glyph unicode="&#xe91d;" glyph-name="document" data-tags="ic_description_black_48px" horiz-adv-x="819" d="M512 960h-409.6c-56.32 0-101.888-46.080-101.888-102.4l-0.512-819.2c0-56.32 45.568-102.4 101.888-102.4h614.912c56.32 0 102.4 46.080 102.4 102.4v614.4l-307.2 307.2zM614.4 140.8h-409.6v102.4h409.6v-102.4zM614.4 345.6h-409.6v102.4h409.6v-102.4zM460.8 601.6v281.6l281.6-281.6h-281.6z" />
<glyph unicode="&#xe91e;" glyph-name="ticket" data-tags="ic_local_activity_black_48px" horiz-adv-x="1280" d="M1152 448c0 70.4 57.6 128 128 128v256c0 70.4-57.6 128-128 128h-1024c-70.4 0-127.36-57.6-127.36-128v-256c70.4 0 127.36-57.6 127.36-128s-56.96-128-128-128v-256c0-70.4 57.6-128 128-128h1024c70.4 0 128 57.6 128 128v256c-70.4 0-128 57.6-128 128v0zM869.12 140.8l-229.12 147.2-229.12-147.2 69.12 263.68-210.56 172.16 271.36 16 99.2 252.16 98.56-252.8 271.36-16-210.56-172.16 69.76-263.040z" />
<glyph unicode="&#xe91f;" glyph-name="verified" data-tags="ic_verified_user_black_48px" horiz-adv-x="838" d="M418.909 960l-418.909-186.182v-279.273c0-258.327 178.735-499.898 418.909-558.545 240.175 58.647 418.909 300.218 418.909 558.545v279.273l-418.909 186.182zM325.818 215.273l-186.182 186.182 65.629 65.629 120.553-120.087 306.735 306.735 65.629-66.095-372.364-372.364z" />
<glyph unicode="&#xe920;" glyph-name="filter" data-tags="filtericon" horiz-adv-x="1593" d="M1212.444 704c70.692 0 128 57.308 128 128s-57.308 128-128 128c-70.692 0-128-57.308-128-128s57.308-128 128-128zM604.444 320c70.692 0 128 57.308 128 128s-57.308 128-128 128c-70.692 0-128-57.308-128-128s57.308-128 128-128zM956.444-64c70.692 0 128 57.308 128 128s-57.308 128-128 128c-70.692 0-128-57.308-128-128s57.308-128 128-128zM28.444 896h1536v-128h-1536v128zM28.444 512h1536v-128h-1536v128zM28.444 128h1536v-128h-1536v128z" />
<glyph unicode="&#xe921;" glyph-name="send" data-tags="ic_send_black_24px" d="M85.76 64l895.573 384-895.573 384-0.427-298.667 640-85.333-640-85.333z" />
<glyph unicode="&#xe922;" glyph-name="carro" data-tags="carro" horiz-adv-x="1802" d="M1425.081 24.907c-57.628 0-104.344 46.716-104.344 104.344s46.716 104.344 104.344 104.344c57.628 0 104.344-46.716 104.344-104.344s-46.716-104.344-104.344-104.344zM1425.081 182.137c-29.208 0-52.887-23.678-52.887-52.887s23.678-52.887 52.887-52.887c29.208 0 52.887 23.678 52.887 52.887s-23.678 52.887-52.887 52.887zM1801.005 377.961h-1239.835v582.039h1239.835v-582.039zM611.484 429.418h1139.207v479.125h-1138.064v-479.125zM1189.807 102.379h-703.821c-36.787 0-66.609 29.822-66.609 66.609v94.338c-0.006 0.34-0.010 0.741-0.010 1.143 0 36.787 29.822 66.609 66.609 66.609 0.003 0 0.007 0 0.010 0h805.020l-39.165-43.167c-38.061-41.466-61.545-96.845-62.034-157.703l-0.001-27.829zM485.985 278.477c-8.368 0-15.151-6.783-15.151-15.151v-93.481c0-8.368 6.783-15.151 15.151-15.151h653.793c4.48 46.325 19.317 88.414 42.156 124.994l-695.95-1.211zM1735.54 102.379h-71.183v26.586c-0.909 61.137-24.886 116.504-63.59 157.939l-37.895 44.174h171.524c0.003 0 0.006 0 0.010 0 36.787 0 66.609-29.822 66.609-66.609 0-0.402-0.004-0.803-0.011-1.204l0.001-93.135c0.006-0.343 0.010-0.748 0.010-1.153 0-36.388-29.179-65.962-65.415-66.598zM1715.243 154.979h21.441c8.368 0 15.151 6.783 15.151 15.151v93.195c0 8.368-6.783 15.151-15.151 15.151h-62.892c22.084-35.29 36.915-77.273 41.357-122.308zM1425.081-64c-106.729 0-193.251 86.521-193.251 193.251s86.521 193.251 193.251 193.251c106.729 0 193.251-86.521 193.251-193.251-0.163-106.664-86.587-193.088-193.235-193.251zM1425.081 271.044c-78.942 0-142.937-63.995-142.937-142.937s63.995-142.937 142.937-142.937c78.942 0 142.937 63.995 142.937 142.937s-63.995 142.937-142.937 142.937zM586.899 604.659h1189.521v-51.457h-1189.521v51.457zM51.457 199.576h-51.457v114.921h192.679v-62.892h253.57v-51.457h-305.027v62.892h-89.764v-63.464z" />
<glyph unicode="&#xe923;" glyph-name="auto" data-tags="auto" horiz-adv-x="2352" d="M392.739 109.9l-176.658 7.607c-49.491 3.835-90.974 34.585-110.114 77.492-76.123 180.027-0.332 316.958 110.396 373.308 94.668 48.461 300.063 100.585 331.056 108.192 376.136 224.837 434.458 248.503 436.712 248.503h9.298c22.54 0 556.456 2.536 613.652 0 42.524-2.554 81.61-15.209 115.539-35.576l284.547-199.404c28.175-2.536 140.875-12.679 181.729-15.778 0.307 0.005 0.668 0.007 1.032 0.007 36.51 0 67.206-24.89 76.046-58.627l0.122-6.183v-135.24c118.335-169.050-35.782-343.735-37.473-345.425l-6.48-7.326-160.034-11.552-2.536 49.306 140.875 10.143c25.358 31.838 115.518 160.034 23.667 284.285l-4.79 6.48v145.947c-4.44 11.618-15.293 19.813-28.119 20.284-53.025 3.383-193.055 16.907-194.464 16.907h-6.48l-294.992 206.805c-26.237 15.826-57.51 26.020-90.975 28.145-53.562 2.566-550.569 0.030-606.355 0.030-16.905-7.607-102.275-49.87-427.978-244.84l-6.762-2.818c-2.254 0-228.781-56.35-324.012-105.093-84.525-42.826-156.372-149.61-88.188-309.925 11.392-28.075 37.11-48.147 67.838-51.251l175.875-7.354zM802.122 159.207h823.273v-48.179h-823.273v48.179zM770.003 553.938l-34.655 2.254c-10.092 4.436-17.011 14.344-17.011 25.869 0 4.981 1.293 9.659 3.56 13.719l3.871 6.337c42.544 64.239 267.944 192.436 293.301 197.225 21.131 5.072 246.813 2.254 342.89 0h24.231v-246.813h-616.188zM789.726 602.118h546.595v151.018c-118.335 2.818-289.075 2.818-307.389 0.282-91.142-45.542-169.572-95.865-241.986-153.433zM1470.997 553.093v246.813h23.385c7.531 0.327 16.366 0.513 25.244 0.513 38.879 0 76.924-3.57 113.825-10.399l-0.448 0.589c45.925-14.933 213.003-129.324 214.694-190.463 0.019-0.439 0.029-0.954 0.029-1.471 0-16.055-10.251-29.716-24.565-34.795l-4.485-1.77zM1520.021 753.135v-150.455l273.297 7.044c-48.059 55.176-105.85 100.457-170.913 133.481-32.927 7.006-67.134 10.182-102.078 10.211h-0.024zM597.29-30.975c-130.058 2.062-234.698 107.978-234.698 238.332 0 131.643 106.718 238.361 238.361 238.361 131.633 0 238.345-106.702 238.361-238.331-1.114-131.885-108.284-238.368-240.325-238.368-0.597 0-1.194 0.002-1.791 0.007zM597.29 397.285c-103.2-2.366-185.954-86.586-185.954-190.134 0-105.034 85.147-190.182 190.182-190.182s190.182 85.147 190.182 190.182c0 0.082 0 0.165 0 0.247-1.105 105.111-86.582 189.904-191.862 189.904-0.895 0-1.789-0.007-2.681-0.019zM1843.47-30.975c-130.058 2.062-234.698 107.978-234.698 238.332 0 131.643 106.718 238.361 238.361 238.361 131.633 0 238.345-106.702 238.361-238.331-1.114-131.885-108.284-238.368-240.325-238.368-0.597 0-1.194 0.002-1.791 0.007zM1843.47 397.285c-103.815-1.588-187.363-86.116-187.363-190.16 0-105.034 85.147-190.182 190.182-190.182s190.182 85.147 190.182 190.182c0 0.092 0 0.183 0 0.275-1.113 105.103-86.586 189.889-191.862 189.889-0.4 0-0.799-0.001-1.198-0.004zM597.29 103.138c-56.842 0.951-102.557 47.254-102.557 104.234 0 57.574 46.673 104.248 104.248 104.248 57.57 0 104.239-46.666 104.248-104.233-0.476-57.678-47.344-104.251-105.089-104.251-0.299 0-0.596 0.001-0.894 0.004zM597.29 263.453c-31.121 0-56.35-25.228-56.35-56.35s25.228-56.35 56.35-56.35c31.121 0 56.35 25.228 56.35 56.35s-25.228 56.35-56.35 56.35zM1843.47 103.138c-56.842 0.951-102.557 47.254-102.557 104.234 0 57.574 46.673 104.248 104.248 104.248 57.57 0 104.239-46.666 104.248-104.233-0.476-57.678-47.344-104.251-105.089-104.251-0.299 0-0.596 0.001-0.894 0.004zM1843.47 263.453c-31.121 0-56.35-25.228-56.35-56.35s25.228-56.35 56.35-56.35c31.121 0 56.35 25.228 56.35 56.35s-25.228 56.35-56.35 56.35z" />
<glyph unicode="&#xe924;" glyph-name="camioneta" data-tags="camioneta" horiz-adv-x="2312" d="M240.748 157.565h-111.2c-19.153 0-66.034 2.573-85.758 25.156s-35.16 77.468-40.592 161.512c-1.9 5.985-2.996 12.869-2.996 20.008 0 21.107 9.572 39.979 24.611 52.511 2.008 107.808 86.029 195.309 192.129 202.728 76.405 10.328 126.716 15.473 155.588 18.331l36.304 3.145c29.999 56.86 68.24 105.137 113.795 145.314 114.322 105.671 270.116 165.416 449.35 173.706h467.097c24.294-0.997 46.805-7.766 66.47-18.959 40.254-24.281 67.241-68.518 67.241-119.058 0-4.145-0.181-8.247-0.537-12.299l0.037-428.266-22.583-2.859c-32.067-3.483-61.156-13.662-86.7-29.115-55.95-34.736-93.748-96.101-95.674-166.423l-0.006-25.432-652.62 2.001v51.455l603.166-2.001c10.213 78.367 54.914 144.567 118.121 183.755 24.834 15.393 52.475 26.768 81.965 33.183l1.732 386.799c0.438 3.298 0.688 7.111 0.688 10.981 0 31.411-16.448 58.978-41.201 74.563-12.169 6.815-26.152 10.969-41.041 11.641l-464.44 0.007c-168.943-7.719-309.587-61.46-416.785-159.511-44.625-39.431-81.12-86.891-107.44-140.269l-7.762-16.383h-15.15s-16.294 0-49.168-4.002c-28.586-2.573-78.040-8.004-154.365-18.295-81.834-4.997-146.31-72.587-146.31-155.236 0-3.012 0.086-6.004 0.255-8.974l-0.019-17.312-16.294-7.147c-5.932-2.7-9.982-8.576-9.982-15.396 0-2.173 0.411-4.25 1.159-6.158l2.533-10.177c6.289-102.338 22.869-128.637 28.586-134.355 12.791-4.752 27.568-7.502 42.987-7.502 1.47 0 2.934 0.025 4.392 0.075l110.416-0.006v-51.455zM1806.121 158.137h-26.585v26.585c0.051 1.623 0.080 3.532 0.080 5.448 0 82.583-54.126 152.525-128.837 176.286l-19.605 6.077v330.169h612.028c40.282-9.909 69.693-45.717 69.693-88.394 0-3.402-0.187-6.759-0.551-10.064l0.036-348.914c-13.326-52.839-58.815-91.928-113.976-95.459-76.692-0.305-379.42-1.734-392.283-1.734zM1683.487 409.695c81.79-33.502 139.946-109.156 147.728-199.217 76.101-0.886 302.502-0.886 363.676 0.83 31.518 2.383 57.382 24.097 65.902 53.217l0.132 340.127c0 37.162-19.153 45.452-24.584 46.881h-552.855v-241.838zM1047.447 554.912h-535.132l13.149 33.445c4.002 10.577 100.908 258.99 495.396 271.854h26.585v-305.299zM592.357 606.367h403.636v202.39c-252.7-16.294-364.186-140.644-403.636-202.39zM1448.51 554.912h-336.744v300.439h276.999c0.024 0 0.052 0 0.081 0 46.056 0 83.632-36.305 85.671-81.858l0.007-217.152zM1162.649 606.367h259.561v163.799c0.007 0.259 0.011 0.563 0.011 0.869 0 18.156-14.718 32.873-32.873 32.873-0.306 0-0.61-0.004-0.914-0.012l-225.786 0.001v-197.53zM478.584-63.977h-6.575c-1.465-0.031-3.192-0.048-4.924-0.048-137.412 0-249.178 109.801-252.346 246.452 2.538 137.739 114.556 248.184 252.369 248.184 1.723 0 3.442-0.017 5.157-0.052l-0.257 0.004c1.133 0.018 2.469 0.029 3.808 0.029 137.634 0 249.656-109.66 253.458-246.375-2.702-137.128-113.676-247.099-250.588-248.192zM472.009-11.95c1.825-0.059 3.97-0.093 6.124-0.093 53.899 0 102.884 21.039 139.19 55.353 37.394 35.396 61.138 85.074 62.502 140.306-3.626 108.86-92.546 195.527-201.707 195.527-1.344 0-2.685-0.013-4.022-0.039l0.2 45.169v-44.88c-1.628 0.048-3.543 0.075-5.465 0.075-109.233 0-198.024-87.525-200.067-196.27 2.856-108.48 91.321-195.174 200.034-195.174 1.129 0 2.255 0.009 3.38 0.028zM472.58 69.52c-63.15 0-114.345 51.194-114.345 114.345s51.194 114.345 114.345 114.345c63.15 0 114.345-51.194 114.345-114.345s-51.194-114.345-114.345-114.345zM472.58 245.61c-34.417 0-62.317-27.901-62.317-62.317s27.901-62.317 62.317-62.317c34.417 0 62.317 27.901 62.317 62.317-0.162 34.293-28.001 62.032-62.317 62.032 0 0 0 0-0.001 0zM1572.287-62.834c-0.087 0-0.191 0-0.294 0-137.766 0-250.241 108.283-256.957 244.382 2.695 138.148 114.534 248.684 252.331 249.3h10.065c137.176-0.436 248.623-109.981 252.122-246.373-5.489-133.613-111.597-240.417-244.085-246.999l-13.182-0.024zM1567.141 379.393c-108.91-0.761-197.244-87.794-200.097-196.121 6.423-109.054 96.217-194.843 206.048-194.843 110.536 0 200.776 86.894 206.14 196.099-4.057 108.727-92.793 194.934-201.665 194.934-1.857 0-3.707-0.025-5.552-0.075l-4.874 0.006zM1572.287 69.806c-63.15 0-114.345 51.194-114.345 114.345s51.194 114.345 114.345 114.345c63.15 0 114.345-51.194 114.345-114.345s-51.194-114.345-114.345-114.345zM1572.287 245.324c-34.417 0-62.317-27.901-62.317-62.317s27.901-62.317 62.317-62.317c34.417 0 62.317 27.901 62.317 62.317s-27.901 62.317-62.317 62.317z" />
<glyph unicode="&#xe925;" glyph-name="moto" data-tags="moto" horiz-adv-x="1614" d="M1334.745-62.857c-154.41 0-279.585 125.174-279.585 279.585 0.054 15.18 1.299 30.026 3.647 44.503l-100.273 32.969c-3.924-19.702-6.401-42.569-6.855-65.931l-0.006-25.549h-25.443c-64.322 0-253.57 2.001-253.57 2.001h-24.013l-1.429 23.728c-8.862 133.789-55.745 232.415-142.937 299.882l-44.596-95.768c2.882-2.7 5.506-5.596 7.88-8.693 3.253-4.143 6.434-7.686 9.827-11.015 45.901-49.67 74.041-116.31 74.041-189.522 0-154.41-125.174-279.585-279.585-279.585-73.355 0-140.111 28.25-189.983 74.464-50.56 50.41-81.955 120.369-81.955 197.659 0 154.252 125.046 279.299 279.299 279.299 0.132 0 0.265 0 0.397 0h-0.021c3.029 0.155 6.577 0.243 10.145 0.243 10.844 0 21.498-0.816 31.903-2.39l37.424 117.639c-82.332 44.31-247.853 9.148-307.6-9.434l-14.58 48.599c127.786 41.166 249.854 47.741 346.479 19.154l85.762 164.949c7.812 31.551 23.843 58.625 45.691 79.712 4.268 3.806 9.191 6.893 14.577 9.074 16.639 7.742 35.734 12.189 55.867 12.189 5.516 0 10.955-0.334 16.296-0.982 7.894 11.495 21.113 19.023 36.118 19.784l132.477 6.008c0.629 0.030 1.367 0.048 2.108 0.048 12.497 0 23.846-4.92 32.214-12.928 8.955-8.569 14.539-20.631 14.562-33.998v-36.025c-0.12-26.158-20.647-47.483-46.473-48.879l-132.484-6.295c-25.157 0-32.018 23.156-41.452 57.175v0l-48.884-5.432-25.443-48.027c71.754-63.75 262.718-122.354 748.704-72.898 20.869 2.001 35.162 3.43 40.308 3.43h16.867l7.433-13.436c7.591-16.896 14.006-36.694 18.255-57.284 3.757-14.756 7.187-29.049 10.618-40.199 8.029 0.334 17.451 0.524 26.918 0.524 45.275 0 89.532-4.353 132.378-12.662 16.847-0.276 36.422-6.416 53.397-16.479l8.287-7.689-3.43-42.595-28.587 7.433q-21.726 5.432-43.167 9.434c-42.595 4.574-111.491 9.148-162.090 9.434-55.489-4.092-107.039-15.078-155.721-32.16-30.945-12.939-61.148-29.246-89.253-48.403l72.305-66.090c44.497 31.297 99.81 50.019 159.494 50.019 154.252 0 279.299-125.046 279.299-279.299s-125.046-279.299-279.299-279.299c-0.796 0-1.591 0.003-2.385 0.010zM922.801 361.952l195.538-70.325-5.432-22.298c-3.988-16.054-6.28-34.486-6.289-53.452 0-0.146 0-0.312 0-0.478 0-126.307 102.392-228.699 228.699-228.699s228.699 102.392 228.699 228.699c0 126.307-102.392 228.699-228.699 228.699-55.062 0-105.58-19.459-145.051-51.875l-17.325-13.976-145.796 139.221 23.156 18.296c37.358 29.33 80.19 54.244 126.268 72.791 42.056 15.008 87.28 25.834 134.026 31.784 0.708 9.775-1.865 19.78-4.437 28.928s-5.717 22.298-8.576 32.304l-18.296-1.715c-153.514-15.723-604.051-61.463-779.578 77.472l-79.759-150.941-64.893-197.539-25.443 8.862c-12.063 3.845-25.938 6.061-40.33 6.061-3.413 0-6.796-0.125-10.146-0.369l0.448 0.026c-0.116 0-0.254 0-0.392 0-126.307 0-228.699-102.392-228.699-228.699s102.392-228.699 228.699-228.699c126.307 0 228.699 102.392 228.699 228.699 0 63.198-25.634 120.409-67.072 161.802-4.7 4.663-9.098 9.605-13.178 14.809-3.379 4.25-7.426 7.287-12.074 9.139l-21.634 11.503 89.764 193.251 24.871-16.295c111.777-73.184 173.525-182.387 188.677-333.043l204.114-1.715c2.182 29.767 7.055 57.354 14.433 83.9zM644.074 902.539l2.859-10.006c0-4.86 3.43-12.293 5.432-18.296l114.35 5.432v29.445zM1330.171 34.626c-0.085 0-0.186 0-0.286 0-97.414 0-176.384 78.97-176.384 176.384 0 0.101 0 0.201 0 0.302 0 0.040 0 0.106 0 0.173 0 11.351 1.040 22.459 3.031 33.234l5.26 27.468 132.931-47.741v-16.867c1.638-14.377 13.734-25.442 28.414-25.442 15.788 0 28.587 12.799 28.587 28.587 0 15.727-12.7 28.488-28.404 28.587h-5.727l-13.436-3.145-100.342 101.199 24.871 18.010c28.503 20.555 64.133 32.875 102.641 32.875 97.572 0 176.67-79.098 176.67-176.67 0-97.375-78.779-176.351-176.080-176.669zM1205.244 203.292c4.249-65.694 58.573-117.369 124.967-117.369 69.153 0 125.213 56.060 125.213 125.213 0 34.698-14.113 66.099-36.912 88.776-23.028 22.546-54.577 36.456-89.376 36.456-15.843 0-31.013-2.883-45.013-8.154l38.616-35.729c0.858 0.032 1.866 0.051 2.878 0.051 44.997 0 81.474-36.477 81.474-81.474s-36.477-81.474-81.474-81.474c-37.037 0-68.302 24.713-78.204 58.549zM276.154 34.912c-99.467 0-180.101 80.634-180.101 180.101s80.634 180.101 180.101 180.101h4.002c0.721 0.020 1.57 0.031 2.421 0.031 7.765 0 15.307-0.95 22.519-2.739l27.946-5.869-45.168-142.937-15.437-2.573c-12.376-2.332-21.666-12.897-22.012-25.692-0.817-2.572-1.287-5.489-1.287-8.515 0-15.788 12.799-28.587 28.587-28.587s28.587 12.799 28.587 28.587c0 3.027-0.47 5.944-1.342 8.682-0.333 4.194-1.773 8.189-4.007 11.618l-5.943 11.622 65.751 130.644 26.015-16.009c43.062-27.017 71.27-74.236 71.27-128.043 0-3.732-0.136-7.432-0.402-11.096-0.294-98.89-80.932-179.328-180.357-179.328-0.402 0-0.804 0.001-1.206 0.004zM264.433 343.084c-65.823-6.201-116.922-61.187-116.922-128.108 0-71.048 57.596-128.643 128.643-128.643s128.643 57.596 128.643 128.643c0 0.013 0 0.026 0 0.039 0.218 2.528 0.342 5.473 0.342 8.446 0 26.235-9.656 50.215-25.608 68.58l-27.049-54.159c2.356-6.786 3.716-14.607 3.716-22.747 0-0.043 0-0.087 0-0.13 0-43.49-35.261-78.751-78.758-78.751s-78.758 35.261-78.758 78.758c0 0.036 0 0.078 0 0.12 0 32.007 19.481 59.463 47.234 71.159z" />
<glyph unicode="&#xe926;" glyph-name="pyme" data-tags="pyme" horiz-adv-x="1278" d="M1174.5 416.094h-1071.257c-7.813 0-14.147 6.334-14.147 14.147v96.019c0 7.813 6.334 14.147 14.147 14.147h1071.257c7.813 0 14.147-6.334 14.147-14.147v-96.019c0-7.813-6.334-14.147-14.147-14.147zM117.089 444.087h1043.264v68.026h-1043.264v-68.026zM1174.5 512.113h-1071.257c-7.813 0-14.147 6.334-14.147 14.147v138.159c0 7.813 6.334 14.147 14.147 14.147h1071.257c7.813 0 14.147-6.334 14.147-14.147v-138.159c0-7.813-6.334-14.147-14.147-14.147zM117.089 540.407h1043.264v109.865h-1043.264v-110.166zM477.084 83.791h-373.841c-7.813 0-14.147 6.334-14.147 14.147v331.099c0 7.813 6.334 14.147 14.147 14.147h373.841c7.813 0 14.147-6.334 14.147-14.147v-331.099c0-7.813-6.334-14.147-14.147-14.147zM115.885 112.085h347.353v304.009h-346.149v-304.009zM1174.5 83.791h-374.142c-7.683 0.169-13.846 6.436-13.846 14.144 0 0.001 0 0.002 0 0.003v331.099c0 7.813 6.334 14.147 14.147 14.147h373.841c7.813 0 14.147-6.334 14.147-14.147v-331.099c0-7.813-6.334-14.147-14.147-14.147zM813.3 112.085h347.052v304.009h-345.848v-304.009zM800.357-63.398h-323.273c-7.813 0-14.147 6.334-14.147 14.147v479.191c0 7.813 6.334 14.147 14.147 14.147h323.273c7.813 0 14.147-6.334 14.147-14.147v-479.793c-0.332-7.55-6.533-13.545-14.134-13.545-0.005 0-0.009 0-0.014 0zM491.231-35.104h295.28v451.499h-294.979v-451.499zM1174.5-63.398h-1071.257c-7.813 0-14.147 6.334-14.147 14.147v575.511h27.993v-561.966h1043.264v561.966h28.294v-576.113c-0.332-7.55-6.533-13.545-14.134-13.545-0.005 0-0.009 0-0.014 0zM624.574 429.94h28.294v-479.793h-28.294v479.793zM941.225 752.912h-606.213c-7.813 0-14.147 6.334-14.147 14.147v178.794c0 7.813 6.334 14.147 14.147 14.147h606.213c7.813 0 14.147-6.334 14.147-14.147v-178.794c0-7.813-6.334-14.147-14.147-14.147zM350.664 781.206h576.414v150.5h-576.414v-150.5zM446.081 767.059h28.294v-102.641h-28.294v102.641zM803.367 767.059h28.294v-102.641h-28.294v102.641zM436.449 837.493c1.695-7.128 8.008-12.348 15.54-12.348 1.105 0 2.183 0.112 3.225 0.326 1.031-0.345 2.334-0.533 3.68-0.533 7.039 0 12.877 5.14 13.965 11.872 0.011 10.616-11.427 11.519-20.156 12.121-1.063-0.133-2.292-0.209-3.54-0.209-15.318 0-27.964 11.442-29.856 26.246-0.017 0.265-0.018 0.401-0.018 0.538 0 16.624 13.476 30.1 30.1 30.1 1.701 0 3.37-0.141 4.994-0.412 1.376 0.308 3.163 0.47 4.987 0.47 16.039 0 29.149-12.546 30.050-28.359l-18.959-0.080c-1.931 6.237-7.648 10.689-14.404 10.689-0.759 0-1.504-0.056-2.233-0.165-0.516 0.102-1.207 0.154-1.91 0.154-6.847 0-12.534-4.97-13.648-11.5-0.012-8.209 8.115-10.316 17.747-11.219 19.565-1.806 36.12-6.020 36.12-27.692-0.749-16.027-13.925-28.737-30.069-28.737-2.359 0-4.654 0.271-6.856 0.784-1.263-0.274-2.954-0.408-4.677-0.408-17.236 0-31.339 13.414-32.439 30.372l18.657 0.096zM589.357 809.5v39.732h-35.217v-39.732h-19.565v93.009h19.565v-35.217h35.217v35.217h19.866v-93.009h-19.866zM698.319 809.5c-0.655-0.034-1.421-0.054-2.192-0.054-24.769 0-44.849 20.080-44.849 44.849 0 0.972 0.031 1.937 0.092 2.893-0.007 25.802 21.016 46.825 46.949 46.825s46.956-21.023 46.956-46.956c0.042-0.731 0.066-1.586 0.066-2.447 0-24.936-20.214-45.15-45.15-45.15-0.658 0-1.314 0.014-1.965 0.042zM698.319 827.259c0.241-0.008 0.524-0.012 0.809-0.012 14.795 0 26.789 11.994 26.789 26.789 0 1.171-0.075 2.325-0.221 3.457 0.11 0.726 0.165 1.724 0.165 2.734 0 15.128-12.263 27.391-27.391 27.391s-27.391-12.263-27.391-27.391c0-1.010 0.055-2.007 0.161-2.989-0.228-1.154-0.353-2.623-0.353-4.122 0-14.629 11.859-26.488 26.488-26.488 0.438 0 0.873 0.011 1.306 0.032zM786.511 809.5v93.009h39.431c0.635 0.045 1.375 0.071 2.122 0.071 17.621 0 31.906-14.285 31.906-31.906 0-0.342-0.005-0.683-0.016-1.023 0.106-0.895 0.166-1.989 0.166-3.098 0-16.624-13.476-30.1-30.1-30.1-1.012 0-2.012 0.050-2.999 0.148l-19.44-0.010v-27.090h-21.070zM825.942 852.242c0.256-0.016 0.556-0.025 0.858-0.025 8.146 0 14.749 6.603 14.749 14.749 0 0.967-0.093 1.912-0.271 2.827 0.048 0.271 0.066 0.694 0.066 1.122 0 7.786-6.158 14.133-13.87 14.437l-20.195 0.001v-31.906h19.866zM902.602 270.198l75.983 75.983 20.007-20.007-75.983-75.983-20.007 20.007zM911.867 188.586l157.501 157.501 20.007-20.007-157.501-157.501-20.007 20.007zM206.955 270.161l75.983 75.983 20.007-20.007-75.983-75.983-20.007 20.007zM216.22 188.549l157.501 157.501 20.007-20.007-157.501-157.501-20.007 20.007zM0-35.706h1277.743v-28.294h-1277.743v28.294z" />
<glyph unicode="&#xe927;" glyph-name="personas" data-tags="personas" d="M511.699-63.398c-282.604 0-511.699 229.095-511.699 511.699s229.095 511.699 511.699 511.699c282.604 0 511.699-229.095 511.699-511.699s-229.095-511.699-511.699-511.699zM511.699 929.9c-265.98 0-481.599-215.619-481.599-481.599s215.619-481.599 481.599-481.599c265.98 0 481.599 215.619 481.599 481.599-1.191 265.499-216.099 480.408-481.484 481.599zM511.699 187.636c-143.892 0.171-260.494 116.773-260.665 260.649v90.317c0 6.923 0 13.545 0 20.167 0.338 4.462 2.614 8.332 5.979 10.807 2.614 2.43 6.079 3.904 9.888 3.904 1.425 0 2.801-0.206 4.101-0.59 18.030-5.077 38.854-8.011 60.362-8.011 92.874 0 172.972 54.698 209.838 133.636 2.935 6.437 7.934 9.851 13.731 9.851 0.039 0 0.077 0 0.116 0h-0.006c0.033 0 0.071 0 0.11 0 5.796 0 10.796-3.413 13.097-8.34 35.002-74.752 106.52-127.098 190.917-134.276 8.116-0.678 13.812-6.583 14.1-13.877l0.001-3.941c0-2.709 0-5.719 0-8.428v-90.3c0-0.179 0.001-0.391 0.001-0.603 0-144.128-116.839-260.966-260.966-260.966-0.212 0-0.424 0-0.635 0.001zM279.929 541.009v-92.708c0-128.086 103.834-231.92 231.92-231.92s231.92 103.834 231.92 231.92v90.3c-80.909 11.004-149.056 57.711-188.976 123.455-46.817-75.525-129.615-126.028-224.208-126.028-17.925 0-35.426 1.813-52.33 5.267zM757.616 536.795v0c-96.215 8.329-176.811 67.743-215.147 150.689-1.5 3.383-1.984 5.453-1.984 7.636s0.484 4.253 1.351 6.109c10.491 22.815 17.492 49.433 19.486 77.435 0.599 8.257 6.838 14.148 14.453 14.148 1.297 0 2.554-0.171 3.75-0.491 108.578-29.551 187.964-125.295 192.523-240.278 0.018-0.588 0.019-0.694 0.019-0.799 0-7.979-6.469-14.448-14.448-14.448-0.001 0-0.002 0-0.003 0zM570.093 694.218c33.604-66.155 96.171-113.418 170.544-125.341-9.479 88.826-69.63 161.457-150.57 190.16-5.175-23.889-11.594-45.885-20.623-66.478zM331.099 535.892c-24.103 0.035-47.423 3.329-69.561 9.464-4.314 1.316-8.743 6.884-8.743 13.486 0 0.398 0.016 0.791 0.048 1.181 11.327 134.352 122.656 239.3 258.741 240.447 7.64 0.001 14.864 0.001 21.486 0.001 17.192-1.478 32.975-4.354 48.204-8.563 4.45-1.212 9.024-6.853 9.024-13.563 0-0.37-0.014-0.736-0.041-1.099-2.562-32.414-10.729-62.377-23.541-89.732-41.294-89.012-131.142-150.886-235.521-151.621zM282.337 568.701c14.475-3.252 31.099-5.116 48.159-5.117 117.19 0.192 213.995 87.214 229.527 200.159-8.401 3.087-18.696 4.582-29.186 5.376-6.798 0.047-13.419 0.047-19.74 0.047-116.391-0.998-212.352-87.193-228.61-199.209zM387.386 491.043h75.551v-28.896h-75.551v28.896zM566.18 491.043h75.551v-28.896h-75.551v28.896zM511.699 305.928v0c-0.060 0-0.131 0-0.202 0-20.388 0-39.442 5.71-55.65 15.617l15.519 24.416c11.459-6.995 25.324-11.137 40.155-11.137 0.063 0 0.126 0 0.188 0h-0.010c0.449-0.009 0.979-0.015 1.509-0.015 23.395 0 44.373 10.345 58.61 26.709l22.053-18.869c-19.644-22.558-48.413-36.735-80.493-36.735-0.591 0-1.18 0.005-1.769 0.014zM511.699-63.398c-154.248 0.418-292.389 69.019-385.933 177.24-2.723 3.165-4.047 6.465-4.047 10.076 0 0.817 0.068 1.618 0.198 2.398 17.036 96.772 84.882 174.433 174.515 205.244l10.889-26.836c-79.746-26.922-139.452-93.22-156.554-175.158 88.451-102.353 217.766-165.637 361.861-165.637 143.107 0 271.636 62.419 359.847 161.516-15.668 84.73-75.225 151.988-153.549 178.789l7.386 27.88c92.449-31.308 160.815-110.208 176.485-206.781 0.321-2.206 0.389-3.007 0.389-3.824 0-3.61-1.324-6.911-3.513-9.443-94.288-107.769-232.102-175.469-385.728-175.469-0.789 0-1.578 0.002-2.367 0.005z" />
<glyph unicode="&#xe928;" glyph-name="patrimonio" data-tags="patrimonio" horiz-adv-x="956" d="M816.31 396.228h-676.346c-7.314 0-13.244 5.93-13.244 13.244v77.056c0 7.314 5.93 13.244 13.244 13.244h676.346c7.314 0 13.244-5.93 13.244-13.244v-76.755c0.002-0.090 0.003-0.195 0.003-0.301 0-7.314-5.93-13.244-13.244-13.244-0.001 0-0.002 0-0.004 0zM154.112 423.017h648.654v49.966h-649.256v-49.966zM421.399 147.302h-162.54c-7.314 0-13.244 5.93-13.244 13.244v158.627c0 7.314 5.93 13.244 13.244 13.244h162.54c7.314 0 13.244-5.93 13.244-13.244v-158.627c0-7.314-5.93-13.244-13.244-13.244zM270.899 174.091h135.751v131.838h-135.751v-131.838zM414.476 563.584h-150.5c-7.314 0-13.244 5.93-13.244 13.244v145.985c0 48.624 39.418 88.042 88.042 88.042s88.042-39.418 88.042-88.042v-145.985c0-0.009 0-0.020 0-0.031 0-6.997-5.426-12.726-12.299-13.211zM278.424 590.373h122.507v132.44c0 33.829-27.424 61.253-61.253 61.253s-61.253-27.424-61.253-61.253v-132.44zM692.299 563.584h-150.5c-7.314 0-13.244 5.93-13.244 13.244v145.985c0 48.624 39.418 88.042 88.042 88.042s88.042-39.418 88.042-88.042v-145.985c0-0.009 0-0.020 0-0.031 0-6.997-5.426-12.726-12.299-13.211zM556.247 590.373h122.507v132.44c0 33.829-27.424 61.253-61.253 61.253s-61.253-27.424-61.253-61.253v-132.44zM816.31 472.983h-676.346c-7.314 0-13.244 5.93-13.244 13.244v383.473c0 7.314 5.93 13.244 13.244 13.244h676.346c7.314 0 13.244-5.93 13.244-13.244v-383.172c0.002-0.090 0.003-0.195 0.003-0.301 0-7.314-5.93-13.244-13.244-13.244-0.001 0-0.002 0-0.004 0zM154.112 499.772h648.654v356.985h-649.256v-356.985zM816.31 12.755h-676.346c-0.009 0-0.020 0-0.031 0-7.314 0-13.244 5.93-13.244 13.244 0 0.318 0.011 0.633 0.033 0.945l-0.002 382.829c0 7.314 5.93 13.244 13.244 13.244h676.346c7.314 0 13.244-5.93 13.244-13.244v-382.871c0.020-0.27 0.031-0.585 0.031-0.903 0-7.314-5.93-13.244-13.244-13.244-0.011 0-0.022 0-0.033 0zM154.112 39.544h648.654v356.684h-649.256v-356.684zM872.898-63.398h-788.317c-7.314 0-13.244 5.93-13.244 13.244v77.056c0 7.314 5.93 13.244 13.244 13.244h788.317c7.314 0 13.244-5.93 13.244-13.244v-76.755c0.002-0.090 0.003-0.195 0.003-0.301 0-7.314-5.93-13.244-13.244-13.244-0.001 0-0.002 0-0.004 0zM97.825-37.211h760.626v49.966h-760.626v-49.966zM853.935 856.757h-751.596c-5.893 0.397-10.704 4.594-12.022 10.144l-18.68 76.845c-0.22 0.904-0.347 1.942-0.347 3.010 0 7.314 5.93 13.244 13.244 13.244 0.016 0 0.032 0 0.048 0h788.315c0.014 0 0.030 0 0.046 0 7.314 0 13.244-5.93 13.244-13.244 0-1.068-0.126-2.106-0.365-3.1l-18.945-76.665c-1.414-5.909-6.651-10.234-12.897-10.234-0.016 0-0.032 0-0.048 0zM112.875 883.245h729.924l11.739 49.966h-752.499zM0-37.211h956.275v-26.789h-956.275v26.789zM697.717 12.755h-162.54c-0.009 0-0.020 0-0.031 0-7.314 0-13.244 5.93-13.244 13.244 0 0.318 0.011 0.633 0.033 0.945l-0.002 292.228c0 7.314 5.93 13.244 13.244 13.244h162.239c7.314 0 13.244-5.93 13.244-13.244v-292.27c0.020-0.271 0.031-0.587 0.031-0.906 0-7.22-5.777-13.090-12.96-13.241zM547.217 39.544h135.751v266.384h-134.246v-266.384zM226.954 173.79h226.051v-26.789h-226.051v26.789zM235.984 590.072h207.991v-26.789h-207.991v26.789zM512.602 590.072h207.991v-26.789h-207.991v26.789zM562.568 173.79h31.906v-26.789h-31.906v26.789z" />
<glyph unicode="&#xe929;" glyph-name="viajes" data-tags="viajes" horiz-adv-x="1198" d="M1104.331-64h-1010.564c-0.085 0-0.185 0-0.286 0-51.786 0-93.767 41.981-93.767 93.767 0 0 0 0 0 0v661.798c0.162 51.721 42.046 93.605 93.751 93.767h185.548v110.347c0 0.001 0 0.002 0 0.003 0 35.323 28.473 63.995 63.719 64.319h512.031c35.336-0.322 63.876-28.963 64.036-64.306v-110.363h185.532c51.786 0 93.767-41.981 93.767-93.767v-661.798c0-51.786-41.981-93.767-93.767-93.767zM93.481 733.874c-23.244-0.162-42.023-19.042-42.023-42.308 0 0 0-0.001 0-0.001v-661.798c0.322-23.12 19.14-41.738 42.305-41.738 0.001 0 0.003 0 0.004 0h1010.564c23.367 0 42.309 18.943 42.309 42.309v661.226c0 23.367-18.943 42.309-42.309 42.309h-236.989v161.805c0 7.105-5.76 12.864-12.864 12.864h-511.714c-7.105 0-12.864-5.76-12.864-12.864v-161.805h-236.418zM445.106 665.55c-23.705 0.647-42.949 18.902-45.154 42.122l-0.014 95.669c0.723 13.67 7.092 25.722 16.798 33.962 8.085 6.881 18.56 11.033 30.004 11.033 1.135 0 2.261-0.041 3.375-0.121l310.024 0.009c0.562 0.024 1.222 0.038 1.884 0.038 24.34 0 44.321-18.661 46.416-42.457l0.013-97.374c-2.497-23.922-22.553-42.411-46.929-42.411-1.090 0-2.172 0.037-3.244 0.11l-314.316-0.008zM447.107 717.007v0zM451.681 796.48v-79.187h305.313v79.473h-305.313zM760.138 717.293v0zM760.138 796.766v0zM1009.992 757.030h51.457v-795.301h-51.457v795.301zM136.076 757.030h51.457v-795.301h-51.457v795.301z" />
</font>
</defs>
</svg>
